<svg width="35" height="36" viewBox="0 0 35 36" fill="none" xmlns="http://www.w3.org/2000/svg">
<path d="M16.75 19.3965H13.25C12.1454 19.3965 11.25 18.5011 11.25 17.3965V6.89648C11.25 5.79191 12.1454 4.89648 13.25 4.89648H19.5L23.75 9.14648V11.3965" stroke="#DA0175" stroke-width="1.5" stroke-linecap="round" stroke-linejoin="round"/>
<path d="M22.5 14.8965V19.3965" stroke="#DA0175" stroke-width="1.5" stroke-linecap="round" stroke-linejoin="round"/>
<path d="M24.75 17.1465H20.25" stroke="#DA0175" stroke-width="1.5" stroke-linecap="round" stroke-linejoin="round"/>
<path d="M23.5 9.39648H19.25V5.14648" stroke="#DA0175" stroke-width="1.5" stroke-linecap="round" stroke-linejoin="round"/>
<path d="M3.112 32.2105C2.57333 32.2105 2.104 32.0958 1.704 31.8665C1.304 31.6318 0.997333 31.2985 0.784 30.8665C0.570667 30.4292 0.464 29.9145 0.464 29.3225C0.464 28.7358 0.570667 28.2265 0.784 27.7945C0.997333 27.3572 1.304 27.0238 1.704 26.7945C2.104 26.5598 2.57333 26.4425 3.112 26.4425C3.464 26.4425 3.79733 26.4985 4.112 26.6105C4.42667 26.7172 4.70133 26.8745 4.936 27.0825C5.03733 27.1625 5.088 27.2692 5.088 27.4025C5.088 27.4985 5.06133 27.5812 5.008 27.6505C4.95467 27.7145 4.89067 27.7465 4.816 27.7465C4.72533 27.7465 4.63733 27.7118 4.552 27.6425C4.296 27.4505 4.06133 27.3172 3.848 27.2425C3.64 27.1625 3.40267 27.1225 3.136 27.1225C2.54933 27.1225 2.09867 27.3118 1.784 27.6905C1.46933 28.0692 1.312 28.6132 1.312 29.3225C1.312 30.0372 1.46933 30.5838 1.784 30.9625C2.09867 31.3412 2.54933 31.5305 3.136 31.5305C3.392 31.5305 3.624 31.4905 3.832 31.4105C4.04533 31.3305 4.28533 31.1972 4.552 31.0105C4.65867 30.9412 4.74667 30.9065 4.816 30.9065C4.89067 30.9065 4.95467 30.9412 5.008 31.0105C5.06133 31.0745 5.088 31.1545 5.088 31.2505C5.088 31.3838 5.03733 31.4905 4.936 31.5705C4.70133 31.7785 4.42667 31.9385 4.112 32.0505C3.79733 32.1572 3.464 32.2105 3.112 32.2105ZM7.59194 32.2025C7.20794 32.2025 6.86927 32.1198 6.57594 31.9545C6.28794 31.7892 6.06394 31.5545 5.90394 31.2505C5.74927 30.9412 5.67194 30.5838 5.67194 30.1785C5.67194 29.7678 5.74927 29.4105 5.90394 29.1065C6.06394 28.7972 6.28794 28.5598 6.57594 28.3945C6.86927 28.2292 7.20794 28.1465 7.59194 28.1465C7.97594 28.1465 8.31194 28.2292 8.59994 28.3945C8.89327 28.5598 9.11727 28.7972 9.27194 29.1065C9.43194 29.4105 9.51194 29.7678 9.51194 30.1785C9.51194 30.5838 9.43194 30.9412 9.27194 31.2505C9.11727 31.5545 8.89327 31.7892 8.59994 31.9545C8.31194 32.1198 7.97594 32.2025 7.59194 32.2025ZM7.59194 31.5625C7.94927 31.5625 8.22127 31.4452 8.40794 31.2105C8.59994 30.9758 8.69594 30.6318 8.69594 30.1785C8.69594 29.7305 8.59994 29.3892 8.40794 29.1545C8.21594 28.9145 7.94394 28.7945 7.59194 28.7945C7.23994 28.7945 6.96794 28.9145 6.77594 29.1545C6.58394 29.3892 6.48794 29.7305 6.48794 30.1785C6.48794 30.6318 6.58127 30.9758 6.76794 31.2105C6.95994 31.4452 7.2346 31.5625 7.59194 31.5625ZM12.5076 28.1465C12.8489 28.1465 13.1502 28.2292 13.4116 28.3945C13.6729 28.5598 13.8756 28.7945 14.0196 29.0985C14.1689 29.4025 14.2436 29.7572 14.2436 30.1625C14.2436 30.5625 14.1689 30.9172 14.0196 31.2265C13.8756 31.5358 13.6702 31.7758 13.4036 31.9465C13.1422 32.1172 12.8436 32.2025 12.5076 32.2025C12.2142 32.2025 11.9556 32.1412 11.7316 32.0185C11.5076 31.8905 11.3369 31.7092 11.2196 31.4745V31.7945C11.2196 31.9118 11.1822 32.0078 11.1076 32.0825C11.0382 32.1518 10.9422 32.1865 10.8196 32.1865C10.6969 32.1865 10.5982 32.1518 10.5236 32.0825C10.4489 32.0078 10.4116 31.9118 10.4116 31.7945V26.8505C10.4116 26.7332 10.4489 26.6398 10.5236 26.5705C10.6036 26.5012 10.7049 26.4665 10.8276 26.4665C10.9449 26.4665 11.0382 26.5012 11.1076 26.5705C11.1822 26.6345 11.2196 26.7225 11.2196 26.8345V28.8825C11.3369 28.6478 11.5076 28.4665 11.7316 28.3385C11.9556 28.2105 12.2142 28.1465 12.5076 28.1465ZM12.3156 31.5625C12.6622 31.5625 12.9316 31.4398 13.1236 31.1945C13.3209 30.9492 13.4196 30.6052 13.4196 30.1625C13.4196 29.7252 13.3236 29.3892 13.1316 29.1545C12.9396 28.9145 12.6676 28.7945 12.3156 28.7945C11.9636 28.7945 11.6916 28.9145 11.4996 29.1545C11.3129 29.3945 11.2196 29.7358 11.2196 30.1785C11.2196 30.6212 11.3129 30.9625 11.4996 31.2025C11.6916 31.4425 11.9636 31.5625 12.3156 31.5625ZM17.1861 28.1625C17.4421 28.1465 17.5701 28.2558 17.5701 28.4905C17.5701 28.6078 17.5408 28.6958 17.4821 28.7545C17.4235 28.8132 17.3221 28.8478 17.1781 28.8585L16.9381 28.8825C16.6021 28.9145 16.3515 29.0318 16.1861 29.2345C16.0261 29.4372 15.9461 29.6825 15.9461 29.9705V31.8025C15.9461 31.9305 15.9088 32.0265 15.8341 32.0905C15.7595 32.1545 15.6635 32.1865 15.5461 32.1865C15.4288 32.1865 15.3301 32.1545 15.2501 32.0905C15.1755 32.0265 15.1381 31.9305 15.1381 31.8025V28.5465C15.1381 28.4238 15.1755 28.3305 15.2501 28.2665C15.3301 28.1972 15.4288 28.1625 15.5461 28.1625C15.6528 28.1625 15.7408 28.1972 15.8101 28.2665C15.8848 28.3305 15.9221 28.4212 15.9221 28.5385V28.9225C16.0288 28.6878 16.1835 28.5092 16.3861 28.3865C16.5888 28.2638 16.8181 28.1918 17.0741 28.1705L17.1861 28.1625ZM19.6844 28.1465C20.2017 28.1465 20.5857 28.2772 20.8364 28.5385C21.0924 28.7998 21.2204 29.1972 21.2204 29.7305V31.8025C21.2204 31.9252 21.1857 32.0212 21.1164 32.0905C21.047 32.1545 20.951 32.1865 20.8284 32.1865C20.711 32.1865 20.6177 32.1518 20.5484 32.0825C20.479 32.0132 20.4444 31.9198 20.4444 31.8025V31.5065C20.343 31.7305 20.191 31.9038 19.9884 32.0265C19.791 32.1438 19.559 32.2025 19.2924 32.2025C19.0364 32.2025 18.8017 32.1518 18.5884 32.0505C18.3804 31.9438 18.215 31.7998 18.0924 31.6185C17.9697 31.4372 17.9084 31.2318 17.9084 31.0025C17.903 30.7145 17.975 30.4905 18.1244 30.3305C18.2737 30.1652 18.5164 30.0478 18.8524 29.9785C19.1884 29.9038 19.655 29.8665 20.2524 29.8665H20.4364V29.6345C20.4364 29.3358 20.375 29.1198 20.2524 28.9865C20.1297 28.8532 19.9324 28.7865 19.6604 28.7865C19.4737 28.7865 19.2977 28.8105 19.1324 28.8585C18.967 28.9065 18.7857 28.9758 18.5884 29.0665C18.4444 29.1465 18.343 29.1865 18.2844 29.1865C18.2044 29.1865 18.1377 29.1572 18.0844 29.0985C18.0364 29.0398 18.0124 28.9652 18.0124 28.8745C18.0124 28.7945 18.0337 28.7252 18.0764 28.6665C18.1244 28.6025 18.199 28.5412 18.3004 28.4825C18.487 28.3812 18.7057 28.3012 18.9564 28.2425C19.207 28.1785 19.4497 28.1465 19.6844 28.1465ZM19.4364 31.6025C19.7297 31.6025 19.9697 31.5038 20.1564 31.3065C20.343 31.1038 20.4364 30.8452 20.4364 30.5305V30.3225H20.2924C19.8764 30.3225 19.5564 30.3412 19.3324 30.3785C19.1084 30.4158 18.9484 30.4798 18.8524 30.5705C18.7564 30.6558 18.7084 30.7812 18.7084 30.9465C18.7084 31.1385 18.7777 31.2958 18.9164 31.4185C19.055 31.5412 19.2284 31.6025 19.4364 31.6025ZM24.4296 28.1465C25.363 28.1465 25.8296 28.6718 25.8296 29.7225V31.8025C25.8296 31.9252 25.7923 32.0212 25.7176 32.0905C25.6483 32.1545 25.5496 32.1865 25.4216 32.1865C25.299 32.1865 25.2003 32.1518 25.1256 32.0825C25.0563 32.0132 25.0216 31.9198 25.0216 31.8025V29.7625C25.0216 29.4318 24.955 29.1892 24.8216 29.0345C24.6936 28.8798 24.491 28.8025 24.2136 28.8025C23.8883 28.8025 23.627 28.9038 23.4296 29.1065C23.2323 29.3092 23.1336 29.5812 23.1336 29.9225V31.8025C23.1336 31.9198 23.0963 32.0132 23.0216 32.0825C22.9523 32.1518 22.8563 32.1865 22.7336 32.1865C22.611 32.1865 22.5123 32.1518 22.4376 32.0825C22.363 32.0132 22.3256 31.9198 22.3256 31.8025V28.5465C22.3256 28.4345 22.363 28.3438 22.4376 28.2745C22.5176 28.1998 22.6163 28.1625 22.7336 28.1625C22.851 28.1625 22.9443 28.1972 23.0136 28.2665C23.083 28.3358 23.1176 28.4265 23.1176 28.5385V28.8665C23.2456 28.6318 23.4243 28.4532 23.6536 28.3305C23.883 28.2078 24.1416 28.1465 24.4296 28.1465ZM29.823 31.1545C29.8977 31.1545 29.959 31.1865 30.007 31.2505C30.055 31.3092 30.079 31.3838 30.079 31.4745C30.079 31.5492 30.0577 31.6185 30.015 31.6825C29.9777 31.7412 29.911 31.8025 29.815 31.8665C29.6763 31.9572 29.5163 32.0318 29.335 32.0905C29.1537 32.1492 28.9697 32.1838 28.783 32.1945L28.743 32.4985C28.8177 32.4825 28.8843 32.4745 28.943 32.4745C29.1083 32.4745 29.247 32.5225 29.359 32.6185C29.4763 32.7145 29.535 32.8505 29.535 33.0265C29.535 33.2238 29.4497 33.3838 29.279 33.5065C29.1083 33.6345 28.8657 33.6985 28.551 33.6985C28.343 33.6985 28.159 33.6692 27.999 33.6105C27.903 33.5732 27.855 33.5065 27.855 33.4105C27.855 33.3465 27.8763 33.2932 27.919 33.2505C27.967 33.2078 28.0283 33.1972 28.103 33.2185C28.263 33.2612 28.4123 33.2825 28.551 33.2825C28.6897 33.2825 28.7963 33.2612 28.871 33.2185C28.9457 33.1758 28.983 33.1118 28.983 33.0265C28.983 32.9625 28.9617 32.9118 28.919 32.8745C28.8817 32.8425 28.8257 32.8265 28.751 32.8265C28.6977 32.8265 28.6257 32.8372 28.535 32.8585C28.4443 32.8798 28.3883 32.8905 28.367 32.8905C28.3243 32.8905 28.2843 32.8745 28.247 32.8425C28.215 32.8158 28.2017 32.7785 28.207 32.7305L28.271 32.1785C27.791 32.1038 27.4097 31.8905 27.127 31.5385C26.8497 31.1865 26.711 30.7385 26.711 30.1945C26.711 29.7892 26.791 29.4318 26.951 29.1225C27.1163 28.8132 27.3457 28.5732 27.639 28.4025C27.9323 28.2318 28.2683 28.1465 28.647 28.1465C28.8497 28.1465 29.0523 28.1758 29.255 28.2345C29.463 28.2932 29.647 28.3732 29.807 28.4745C29.9777 28.5918 30.063 28.7278 30.063 28.8825C30.063 28.9732 30.039 29.0505 29.991 29.1145C29.943 29.1732 29.8817 29.2025 29.807 29.2025C29.759 29.2025 29.711 29.1918 29.663 29.1705C29.615 29.1438 29.5537 29.1065 29.479 29.0585C29.3457 28.9732 29.2203 28.9092 29.103 28.8665C28.991 28.8185 28.855 28.7945 28.695 28.7945C28.3323 28.7945 28.0497 28.9172 27.847 29.1625C27.6497 29.4078 27.551 29.7492 27.551 30.1865C27.551 30.6238 27.6497 30.9625 27.847 31.2025C28.0443 31.4372 28.3243 31.5545 28.687 31.5545C28.847 31.5545 28.9883 31.5305 29.111 31.4825C29.2337 31.4345 29.359 31.3705 29.487 31.2905C29.5457 31.2532 29.6043 31.2212 29.663 31.1945C29.7217 31.1678 29.775 31.1545 29.823 31.1545ZM32.4422 28.1465C32.9595 28.1465 33.3435 28.2772 33.5942 28.5385C33.8502 28.7998 33.9782 29.1972 33.9782 29.7305V31.8025C33.9782 31.9252 33.9435 32.0212 33.8742 32.0905C33.8049 32.1545 33.7089 32.1865 33.5862 32.1865C33.4689 32.1865 33.3755 32.1518 33.3062 32.0825C33.2369 32.0132 33.2022 31.9198 33.2022 31.8025V31.5065C33.1009 31.7305 32.9489 31.9038 32.7462 32.0265C32.5489 32.1438 32.3169 32.2025 32.0502 32.2025C31.7942 32.2025 31.5595 32.1518 31.3462 32.0505C31.1382 31.9438 30.9729 31.7998 30.8502 31.6185C30.7275 31.4372 30.6662 31.2318 30.6662 31.0025C30.6609 30.7145 30.7329 30.4905 30.8822 30.3305C31.0315 30.1652 31.2742 30.0478 31.6102 29.9785C31.9462 29.9038 32.4129 29.8665 33.0102 29.8665H33.1942V29.6345C33.1942 29.3358 33.1329 29.1198 33.0102 28.9865C32.8875 28.8532 32.6902 28.7865 32.4182 28.7865C32.2315 28.7865 32.0555 28.8105 31.8902 28.8585C31.7249 28.9065 31.5435 28.9758 31.3462 29.0665C31.2022 29.1465 31.1009 29.1865 31.0422 29.1865C30.9622 29.1865 30.8955 29.1572 30.8422 29.0985C30.7942 29.0398 30.7702 28.9652 30.7702 28.8745C30.7702 28.7945 30.7915 28.7252 30.8342 28.6665C30.8822 28.6025 30.9569 28.5412 31.0582 28.4825C31.2449 28.3812 31.4635 28.3012 31.7142 28.2425C31.9649 28.1785 32.2075 28.1465 32.4422 28.1465ZM32.1942 31.6025C32.4875 31.6025 32.7275 31.5038 32.9142 31.3065C33.1009 31.1038 33.1942 30.8452 33.1942 30.5305V30.3225H33.0502C32.6342 30.3225 32.3142 30.3412 32.0902 30.3785C31.8662 30.4158 31.7062 30.4798 31.6102 30.5705C31.5142 30.6558 31.4662 30.7812 31.4662 30.9465C31.4662 31.1385 31.5355 31.2958 31.6742 31.4185C31.8129 31.5412 31.9862 31.6025 32.1942 31.6025Z" fill="#DA0175"/>
</svg>
